<svg width="190" height="57" fill="none" xmlns="http://www.w3.org/2000/svg">
              <path
                d="M182.963 56.964H7.037c-3.869 0-7.037-3.151-7.037-7v-42c0-3.848 3.168-7 7.037-7h175.926c3.869 0 7.037 3.152 7.037 7v42c0 3.849-3.168 7-7.037 7z"
                fill="#000"
              ></path>
              <path
                d="M182.963 2.122c3.258 0 5.909 2.637 5.909 5.878v42c0 3.241-2.651 5.878-5.909 5.878H7.037c-3.258 0-5.91-2.637-5.91-5.878V8c0-3.241 2.652-5.878 5.91-5.878h175.926zm0-1.122H7.037C3.168 1 0 4.152 0 8v42c0 3.848 3.168 7 7.037 7h175.926c3.869 0 7.037-3.152 7.037-7V8c0-3.848-3.168-7-7.037-7z"
                fill="#A6A6A6"
              ></path>
              <path
                d="M66.736 16.076c0 1.147-.352 2.066-1.045 2.752-.797.812-1.835 1.22-3.107 1.22-1.216 0-2.254-.415-3.105-1.234-.853-.831-1.28-1.852-1.28-3.073 0-1.221.427-2.241 1.28-3.066.851-.826 1.89-1.242 3.105-1.242.605 0 1.182.122 1.733.349.549.228.996.538 1.32.919l-.736.725c-.565-.651-1.334-.972-2.317-.972-.887 0-1.656.302-2.308.912-.646.611-.97 1.403-.97 2.375s.324 1.771.97 2.383c.652.602 1.421.912 2.308.912.941 0 1.733-.31 2.357-.92.412-.403.646-.96.707-1.67h-3.064v-.994h4.088c.05.215.064.423.064.624zM73.222 12.634h-3.84v2.61h3.462v.994h-3.462v2.61h3.84v1.012h-4.928v-8.238h4.928v1.012zM77.8 19.86h-1.087v-7.226h-2.356v-1.012h5.8v1.012H77.8v7.226zM84.355 19.86v-8.238h1.085v8.238h-1.085zM90.252 19.86h-1.079v-7.226H86.81v-1.012h5.807v1.012h-2.364v7.226zM103.597 18.8c-.832.833-1.863 1.249-3.092 1.249-1.237 0-2.268-.416-3.1-1.249-.83-.831-1.244-1.851-1.244-3.059 0-1.207.413-2.228 1.244-3.059.832-.833 1.863-1.249 3.1-1.249 1.222 0 2.253.416 3.085 1.256.838.838 1.251 1.851 1.251 3.052 0 1.208-.413 2.228-1.244 3.06zm-5.388-.69c.626.616 1.388.925 2.296.925.9 0 1.669-.309 2.289-.925.624-.617.941-1.409.941-2.369 0-.96-.317-1.752-.941-2.368-.62-.617-1.389-.926-2.289-.926-.908 0-1.67.309-2.296.926-.625.616-.941 1.408-.941 2.368s.316 1.752.94 2.369zM106.367 19.86v-8.238h1.319l4.103 6.407h.047l-.047-1.584v-4.823h1.085v8.238h-1.133l-4.296-6.723h-.048l.048 1.59v5.133h-1.078z"
                fill="#fff"
                stroke="#fff"
                stroke-width="0.16"
                stroke-miterlimit="10"
              ></path>
              <path
                d="M95.894 31.89c-3.306 0-6.006 2.457-6.006 5.846 0 3.36 2.7 5.843 6.006 5.843 3.312 0 6.013-2.482 6.013-5.843 0-3.39-2.7-5.846-6.013-5.846zm0 9.387c-1.814 0-3.375-1.461-3.375-3.541 0-2.108 1.56-3.544 3.375-3.544 1.813 0 3.381 1.436 3.381 3.544 0 2.08-1.568 3.541-3.381 3.541zM82.789 31.89c-3.313 0-6.006 2.457-6.006 5.846 0 3.36 2.693 5.843 6.006 5.843 3.31 0 6.006-2.482 6.006-5.843 0-3.39-2.695-5.846-6.006-5.846zm0 9.387c-1.816 0-3.381-1.461-3.381-3.541 0-2.108 1.565-3.544 3.38-3.544s3.375 1.436 3.375 3.544c0 2.08-1.56 3.541-3.374 3.541zm-15.594-7.595v2.484h6.075c-.178 1.387-.653 2.408-1.381 3.119-.887.859-2.268 1.812-4.694 1.812-3.738 0-6.666-2.946-6.666-6.596s2.927-6.595 6.666-6.595c2.021 0 3.492.77 4.578 1.77l1.792-1.75c-1.518-1.415-3.538-2.502-6.37-2.502-5.127 0-9.435 4.072-9.435 9.077s4.308 9.078 9.435 9.078c2.77 0 4.852-.886 6.488-2.55 1.677-1.636 2.2-3.938 2.2-5.796 0-.577-.05-1.108-.138-1.551h-8.55zm63.766 1.925c-.494-1.307-2.02-3.717-5.127-3.717-3.078 0-5.641 2.369-5.641 5.846 0 3.273 2.536 5.843 5.937 5.843a5.965 5.965 0 004.989-2.59l-2.04-1.328c-.681.972-1.608 1.616-2.949 1.616-1.332 0-2.287-.596-2.899-1.77l8.006-3.235-.276-.665zm-8.163 1.946a3.241 3.241 0 013.126-3.407c1.045 0 1.932.51 2.227 1.24l-5.353 2.167zm-6.507 5.67h2.631V26.047h-2.631v17.176zm-4.311-10.03h-.088c-.591-.684-1.718-1.303-3.147-1.303-2.998 0-5.739 2.57-5.739 5.864 0 3.276 2.741 5.825 5.739 5.825 1.429 0 2.556-.624 3.147-1.328h.088v.838c0 2.235-1.222 3.436-3.194 3.436-1.608 0-2.606-1.134-3.018-2.087l-2.288.932c.659 1.55 2.406 3.456 5.306 3.456 3.085 0 5.689-1.772 5.689-6.085V32.246h-2.495v.946zm-3.01 8.084c-1.814 0-3.332-1.482-3.332-3.523 0-2.06 1.518-3.562 3.332-3.562 1.788 0 3.197 1.503 3.197 3.562 0 2.041-1.409 3.523-3.197 3.523zm34.313-15.23h-6.295v17.176h2.625v-6.508h3.67c2.915 0 5.774-2.06 5.774-5.335 0-3.274-2.866-5.333-5.774-5.333zm.068 8.279h-3.738v-5.89h3.738c1.96 0 3.079 1.589 3.079 2.944 0 1.33-1.119 2.946-3.079 2.946zm16.226-2.468c-1.896 0-3.869.817-4.68 2.63l2.33.953c.501-.954 1.423-1.263 2.398-1.263 1.361 0 2.742.799 2.763 2.21v.18c-.475-.268-1.491-.665-2.742-.665-2.509 0-5.065 1.348-5.065 3.864 0 2.302 2.055 3.784 4.364 3.784 1.767 0 2.741-.778 3.354-1.683h.089v1.328h2.535v-6.589c0-3.045-2.329-4.75-5.346-4.75zm-.317 9.412c-.858 0-2.054-.415-2.054-1.454 0-1.33 1.491-1.84 2.783-1.84 1.156 0 1.697.249 2.399.577-.205 1.59-1.608 2.717-3.128 2.717zm14.9-9.036l-3.018 7.446h-.089l-3.119-7.446h-2.831l4.687 10.405-2.675 5.79h2.743l7.222-16.195h-2.92zm-23.661 10.99h2.632V26.046h-2.632v17.176z"
                fill="#fff"
              ></path>
              <path
                d="M14.686 12.36c-.413.422-.652 1.08-.652 1.931V44.68c0 .852.239 1.51.652 1.932l.102.093L32.23 29.683v-.402L14.788 12.26l-.102.1z"
                fill="url(#google-play_svg__paint0_linear_13_164)"
              ></path>
              <path
                d="M38.037 35.36l-5.807-5.677v-.402l5.814-5.677.13.074 6.886 3.825c1.965 1.086 1.965 2.872 0 3.965l-6.886 3.818-.137.074z"
                fill="url(#google-play_svg__paint1_linear_13_164)"
              ></path>
              <path
                d="M38.174 35.286l-5.944-5.804-17.544 17.13c.653.67 1.717.75 2.928.081l20.56-11.407z"
                fill="url(#google-play_svg__paint2_linear_13_164)"
              ></path>
              <path
                d="M38.174 23.678l-20.56-11.407c-1.21-.663-2.275-.582-2.928.088L32.23 29.482l5.944-5.804z"
                fill="url(#google-play_svg__paint3_linear_13_164)"
              ></path>
              <defs>
                <linearGradient
                  id="google-play_svg__paint0_linear_13_164"
                  x1="30.681"
                  y1="44.996"
                  x2="7.627"
                  y2="21.383"
                  gradientUnits="userSpaceOnUse"
                >
                  <stop stop-color="#00A0FF"></stop>
                  <stop offset="0.007" stop-color="#00A1FF"></stop>
                  <stop offset="0.26" stop-color="#00BEFF"></stop>
                  <stop offset="0.512" stop-color="#00D2FF"></stop>
                  <stop offset="0.76" stop-color="#00DFFF"></stop>
                  <stop offset="1" stop-color="#00E3FF"></stop>
                </linearGradient>
                <linearGradient
                  id="google-play_svg__paint1_linear_13_164"
                  x1="47.619"
                  y1="29.48"
                  x2="13.564"
                  y2="29.48"
                  gradientUnits="userSpaceOnUse"
                >
                  <stop stop-color="#FFE000"></stop>
                  <stop offset="0.409" stop-color="#FFBD00"></stop>
                  <stop offset="0.775" stop-color="orange"></stop>
                  <stop offset="1" stop-color="#FF9C00"></stop>
                </linearGradient>
                <linearGradient
                  id="google-play_svg__paint2_linear_13_164"
                  x1="34.942"
                  y1="26.327"
                  x2="3.678"
                  y2="-5.694"
                  gradientUnits="userSpaceOnUse"
                >
                  <stop stop-color="#FF3A44"></stop>
                  <stop offset="1" stop-color="#C31162"></stop>
                </linearGradient>
                <linearGradient
                  id="google-play_svg__paint3_linear_13_164"
                  x1="10.27"
                  y1="56.722"
                  x2="24.231"
                  y2="42.424"
                  gradientUnits="userSpaceOnUse"
                >
                  <stop stop-color="#32A071"></stop>
                  <stop offset="0.069" stop-color="#2DA771"></stop>
                  <stop offset="0.476" stop-color="#15CF74"></stop>
                  <stop offset="0.801" stop-color="#06E775"></stop>
                  <stop offset="1" stop-color="#00F076"></stop>
                </linearGradient>
              </defs>
            </svg>